<svg width="128" height="30" viewBox="0 0 128 30" fill="none" xmlns="http://www.w3.org/2000/svg">
<g id="Horizontal Logo 1" clip-path="url(#clip0_157_56)">
<g id="Layer 2">
<g id="Layer 1">
<path id="Vector" d="M5.66992 9.97099L23.7614 0.252336C24.0821 0.0801434 24.442 -0.00592992 24.806 0.00252048C25.1699 0.0109709 25.5255 0.113656 25.8379 0.30055C26.1503 0.487443 26.4089 0.752157 26.5884 1.06884C26.768 1.38553 26.8623 1.74336 26.8623 2.1074V4.47853C26.8625 4.55369 26.8363 4.62655 26.7883 4.68436C26.7402 4.74218 26.6734 4.78127 26.5995 4.79481C26.5255 4.80835 26.4492 4.79548 26.3838 4.75845C26.3184 4.72141 26.2681 4.66256 26.2416 4.5922C25.7188 3.22817 24.864 1.75503 23.6909 2.11877C21.5971 2.76668 22.6815 5.99714 20.6628 7.74081C17.2368 10.6848 10.7145 7.3066 5.66992 9.97099Z" fill="#DD9940"/>
<path id="Vector_2" d="M26.8596 6.9248L26.8164 27.8853C26.8158 28.2051 26.7322 28.5194 26.5739 28.7973C26.4156 29.0753 26.1879 29.3075 25.9131 29.4712C25.6383 29.6349 25.3258 29.7247 25.006 29.7316C24.6862 29.7385 24.37 29.6624 24.0884 29.5107L21.3967 28.058C21.3406 28.0273 21.297 27.9778 21.2737 27.9183C21.2503 27.8587 21.2487 27.7928 21.269 27.7321C21.2893 27.6714 21.3303 27.6198 21.3848 27.5863C21.4393 27.5528 21.5039 27.5395 21.5672 27.5488C23.0654 27.7761 24.9614 27.7898 25.2046 26.5144C25.6252 24.3661 22.2697 23.7864 21.6945 21.1788C20.7283 16.7617 26.8096 12.6332 26.8596 6.9248Z" fill="#DD9940"/>
<path id="Vector_3" d="M18.7164 26.5983L1.15005 16.5591C0.807039 16.3626 0.520829 16.0805 0.319343 15.7404C0.117857 15.4003 0.00797491 15.0137 0.000417984 14.6185C-0.00713895 14.2232 0.0878871 13.8328 0.276225 13.4852C0.464563 13.1376 0.739781 12.8448 1.07503 12.6353L2.58909 11.6896C2.66254 11.644 2.74945 11.6253 2.83513 11.6364C2.92082 11.6476 3.00002 11.688 3.05936 11.7508C3.11869 11.8136 3.15453 11.895 3.1608 11.9812C3.16707 12.0674 3.1434 12.1531 3.09378 12.2238C2.28219 13.3605 1.63428 14.7245 2.50725 15.4815C4.16454 16.9092 6.33106 14.2812 8.87268 15.0701C13.1989 16.4091 13.7809 23.7361 18.7164 26.5983Z" fill="#DD9940"/>
<path id="Vector_4" d="M36.5557 22.4564L41.6662 4.57178H46.5198L51.6054 22.4564H48.7682L47.5929 18.2415H40.5932L39.4178 22.4564H36.5557ZM41.282 15.6863H46.904L44.2965 6.28362H43.8895L41.282 15.6863Z" fill="white"/>
<path id="Vector_5" d="M53.4697 22.4564V4.57178H56.1023V22.4564H53.4697Z" fill="white"/>
<path id="Vector_6" d="M64.1082 22.4564C63.7745 22.4732 63.4409 22.4213 63.1281 22.304C62.8153 22.1867 62.5298 22.0064 62.2895 21.7744C62.0577 21.5296 61.8778 21.2405 61.7606 20.9244C61.6434 20.6084 61.5913 20.2719 61.6075 19.9352V12.083H58.1201V9.85963H61.5938V5.69482H64.2264V9.85963H67.9729V12.083H64.2264V19.4669C64.2264 19.9792 64.4651 20.2345 64.9425 20.233H67.5728V22.4564H64.1082Z" fill="white"/>
<path id="Vector_7" d="M75.7504 22.8154C74.584 22.8427 73.4305 22.5653 72.404 22.0106C71.4567 21.4819 70.6804 20.693 70.167 19.7372C69.6136 18.6873 69.3366 17.5138 69.3623 16.3272V16.018C69.3346 14.8241 69.6066 13.6423 70.1534 12.5807C70.6579 11.6267 71.4256 10.8377 72.3654 10.3073C73.37 9.75555 74.5022 9.47799 75.6481 9.50252C76.7624 9.47753 77.8624 9.75569 78.8309 10.3073C79.737 10.8385 80.4764 11.6125 80.9655 12.542C81.4956 13.5771 81.7589 14.7281 81.7317 15.8907V16.8864H72.0471C72.0805 17.9943 72.451 18.8756 73.1588 19.5304C73.8775 20.1915 74.8266 20.5448 75.8027 20.5147C76.7909 20.5147 77.5365 20.2934 78.0397 19.8509C78.5286 19.425 78.9242 18.9025 79.2014 18.3164L81.3748 19.4531C81.0916 19.9957 80.7435 20.5018 80.3381 20.9603C79.8418 21.5167 79.2368 21.9654 78.5603 22.2789C77.8283 22.635 76.8917 22.8139 75.7504 22.8154ZM72.0653 14.8677H79.0423C79.0315 14.4454 78.9353 14.0297 78.7594 13.6456C78.5836 13.2616 78.3318 12.9171 78.0193 12.633C77.4085 12.0919 76.6098 11.8214 75.6231 11.8214C74.7435 11.7832 73.8809 12.0723 73.202 12.633C72.5586 13.2108 72.1534 14.0074 72.0653 14.8677Z" fill="white"/>
<path id="Vector_8" d="M84.2598 22.4563V9.85958H86.8423V11.3418H87.2515C87.4268 10.8481 87.7759 10.4351 88.2336 10.1801C88.7512 9.91751 89.3268 9.79004 89.9068 9.80957H91.4163V12.1852H89.7977C89.0365 12.1542 88.2904 12.4042 87.7016 12.8877C87.156 13.356 86.8832 14.0759 86.8832 15.0474V22.4563H84.2598Z" fill="white"/>
<path id="Vector_9" d="M100.789 22.8156C99.5633 22.8156 98.6221 22.5935 97.9659 22.1495C97.3722 21.7708 96.8705 21.2644 96.4973 20.6672H96.0881V22.4564H93.5078V4.57178H96.1404V11.5715H96.5496C96.7731 11.2066 97.048 10.8759 97.3657 10.5894C97.7639 10.2411 98.2276 9.976 98.7297 9.80962C99.3965 9.58875 100.096 9.48492 100.799 9.50271C101.821 9.49332 102.827 9.75785 103.713 10.2688C104.612 10.8018 105.344 11.576 105.825 12.5036C106.376 13.5728 106.65 14.7634 106.621 15.9659V16.3501C106.657 17.5624 106.38 18.7636 105.816 19.8374C105.332 20.7468 104.608 21.5056 103.723 22.0308C102.837 22.5561 101.824 22.8276 100.794 22.8156H100.789ZM100.028 20.5149C100.548 20.5323 101.067 20.4439 101.552 20.2552C102.037 20.0665 102.479 19.7813 102.851 19.4169C103.592 18.6848 103.963 17.6368 103.963 16.2728V16.0455C103.963 14.6996 103.597 13.6607 102.865 12.9287C102.096 12.2225 101.091 11.8307 100.047 11.8307C99.0035 11.8307 97.9978 12.2225 97.2293 12.9287C96.4912 13.6607 96.1214 14.6996 96.1199 16.0455V16.2728C96.1199 17.6368 96.4897 18.6848 97.2293 19.4169C97.5973 19.7796 98.0351 20.0639 98.5161 20.2526C98.9971 20.4414 99.5114 20.5306 100.028 20.5149Z" fill="white"/>
<path id="Vector_10" d="M110.576 8.14795C110.339 8.15398 110.102 8.11311 109.881 8.02768C109.659 7.94225 109.457 7.81393 109.285 7.65008C109.112 7.48379 108.975 7.2828 108.885 7.06028C108.795 6.83776 108.753 6.59872 108.762 6.35881C108.753 6.11925 108.796 5.8806 108.886 5.65848C108.976 5.43635 109.112 5.23575 109.285 5.06981C109.641 4.74949 110.103 4.57227 110.582 4.57227C111.061 4.57227 111.523 4.74949 111.879 5.06981C112.05 5.23813 112.183 5.44039 112.272 5.66357C112.36 5.88674 112.4 6.12589 112.39 6.36563C112.399 6.60459 112.359 6.84283 112.27 7.06516C112.182 7.28748 112.049 7.48902 111.879 7.6569C111.705 7.82153 111.501 7.9498 111.277 8.03413C111.053 8.11847 110.815 8.15717 110.576 8.14795ZM109.248 22.4565V9.85979H111.879V22.4565H109.248Z" fill="white"/>
<path id="Vector_11" d="M115.15 22.4565V9.85973H117.731V11.7512H118.14C118.436 11.1729 118.876 10.6805 119.418 10.3212C120.031 9.87867 120.941 9.65664 122.146 9.65513C123.035 9.63895 123.913 9.85941 124.689 10.2939C125.429 10.7203 126.035 11.3447 126.44 12.0967C126.887 12.9595 127.108 13.9216 127.081 14.893V22.4565H124.451V15.0976C124.451 14.0079 124.178 13.2031 123.632 12.6833C123.087 12.1634 122.337 11.9035 121.384 11.9035C120.896 11.8829 120.409 11.9682 119.957 12.1534C119.505 12.3386 119.098 12.6194 118.765 12.9765C118.11 13.6919 117.782 14.7316 117.781 16.0956V22.461L115.15 22.4565Z" fill="white"/>
</g>
</g>
</g>
<defs>
<clipPath id="clip0_157_56">
<rect width="127.084" height="29.7357" fill="white"/>
</clipPath>
</defs>
</svg>
