<svg width="147" height="35" viewBox="0 0 147 35" fill="none" xmlns="http://www.w3.org/2000/svg">
<g clip-path="url(#clip0_102_6)">
<path d="M6.55786 11.5334L27.4846 0.291698C27.8556 0.0925193 28.2719 -0.00704327 28.6929 0.00273146C29.1139 0.0125062 29.5251 0.131284 29.8865 0.347467C30.2479 0.563651 30.547 0.86985 30.7547 1.23617C30.9624 1.60248 31.0715 2.0164 31.0714 2.43749V5.18021C31.0717 5.26716 31.0414 5.35144 30.9859 5.41831C30.9303 5.48518 30.853 5.53041 30.7675 5.54607C30.6819 5.56173 30.5936 5.54684 30.518 5.504C30.4423 5.46116 30.3841 5.39309 30.3536 5.3117C29.7487 3.73391 28.76 2.0299 27.4031 2.45064C24.9812 3.20009 26.2355 6.93682 23.9004 8.95376C19.9375 12.3592 12.3931 8.4515 6.55786 11.5334Z" fill="#DD9940"/>
<path d="M31.069 8.00989L31.0191 32.2552C31.0183 32.6253 30.9217 32.9888 30.7385 33.3103C30.5554 33.6318 30.2921 33.9004 29.9742 34.0898C29.6563 34.2791 29.2948 34.3829 28.9249 34.3909C28.555 34.3989 28.1893 34.3109 27.8635 34.1354L24.75 32.4551C24.6851 32.4196 24.6347 32.3623 24.6077 32.2934C24.5807 32.2245 24.5788 32.1483 24.6023 32.0781C24.6258 32.0079 24.6732 31.9482 24.7363 31.9095C24.7993 31.8707 24.874 31.8553 24.9472 31.8661C26.6802 32.129 28.8733 32.1448 29.1547 30.6696C29.6411 28.1845 25.7598 27.514 25.0945 24.4978C23.9769 19.3884 31.0112 14.6129 31.069 8.00989Z" fill="#DD9940"/>
<path d="M21.65 30.7667L1.33065 19.1542C0.933884 18.9269 0.60282 18.6006 0.369757 18.2072C0.136693 17.8137 0.00959095 17.3666 0.000849701 16.9094C-0.00789155 16.4522 0.102027 16.0006 0.319881 15.5985C0.537735 15.1965 0.856086 14.8578 1.24387 14.6154L2.99522 13.5215C3.08018 13.4688 3.18071 13.4471 3.27982 13.4601C3.37893 13.473 3.47055 13.5197 3.53918 13.5924C3.60782 13.665 3.64927 13.7591 3.65652 13.8588C3.66378 13.9585 3.63639 14.0576 3.579 14.1395C2.64022 15.4543 1.89077 17.0321 2.90055 17.9078C4.81756 19.5592 7.32362 16.5193 10.2636 17.4318C15.2678 18.9806 15.941 27.456 21.65 30.7667Z" fill="#DD9940"/>
<path d="M42.2845 25.9755L48.196 5.28809H53.8103L59.6928 25.9755H56.411L55.0515 21.1002H46.9548L45.5953 25.9755H42.2845ZM47.7516 18.1444H54.2547L51.2385 7.26821H50.7678L47.7516 18.1444Z" fill="#06382E"/>
<path d="M61.8489 25.9755V5.28809H64.894V25.9755H61.8489Z" fill="#06382E"/>
<path d="M74.1555 25.9756C73.7695 25.995 73.3837 25.935 73.0218 25.7993C72.66 25.6636 72.3298 25.4551 72.0518 25.1867C71.7837 24.9035 71.5756 24.5691 71.44 24.2036C71.3045 23.838 71.2442 23.4487 71.2629 23.0593V13.9765H67.229V11.4047H71.2471V6.58716H74.2922V11.4047H78.6259V13.9765H74.2922V22.5176C74.2922 23.1101 74.5684 23.4055 75.1206 23.4038H78.1631V25.9756H74.1555Z" fill="#06382E"/>
<path d="M87.6222 26.391C86.273 26.4226 84.9388 26.1017 83.7514 25.4601C82.6556 24.8485 81.7577 23.936 81.1638 22.8305C80.5236 21.616 80.2032 20.2585 80.2329 18.886V18.5284C80.2009 17.1474 80.5155 15.7804 81.1481 14.5523C81.7316 13.4489 82.6197 12.5362 83.7067 11.9227C84.8688 11.2845 86.1784 10.9634 87.5039 10.9918C88.7928 10.9629 90.0652 11.2846 91.1854 11.9227C92.2336 12.5371 93.0889 13.4325 93.6547 14.5076C94.2677 15.7049 94.5723 17.0363 94.5409 18.3811V19.5329H83.3386C83.3771 20.8144 83.8058 21.8338 84.6245 22.5912C85.4558 23.3559 86.5537 23.7646 87.6827 23.7298C88.8258 23.7298 89.6883 23.4738 90.2703 22.9619C90.8358 22.4693 91.2933 21.8649 91.6141 21.1869L94.128 22.5018C93.8005 23.1294 93.3978 23.7148 92.9289 24.2452C92.3548 24.8888 91.655 25.4078 90.8725 25.7704C90.0258 26.1824 88.9423 26.3893 87.6222 26.391ZM83.3596 17.1978H91.43C91.4175 16.7093 91.3062 16.2285 91.1028 15.7842C90.8994 15.3399 90.6082 14.9415 90.2466 14.6128C89.5401 13.987 88.6163 13.674 87.475 13.674C86.4575 13.6299 85.4597 13.9643 84.6744 14.6128C83.9302 15.2812 83.4615 16.2027 83.3596 17.1978Z" fill="#06382E"/>
<path d="M97.4651 25.9756V11.4047H100.452V13.1192H100.926C101.128 12.5481 101.532 12.0704 102.062 11.7755C102.66 11.4717 103.326 11.3243 103.997 11.3469H105.743V14.0948H103.871C102.99 14.0589 102.127 14.3481 101.446 14.9074C100.815 15.4491 100.5 16.2818 100.5 17.4056V25.9756H97.4651Z" fill="#06382E"/>
<path d="M116.585 26.391C115.167 26.391 114.078 26.1342 113.319 25.6205C112.632 25.1825 112.052 24.5968 111.62 23.906H111.147V25.9755H108.162V5.28809H111.207V13.3848H111.681C111.939 12.9628 112.257 12.5802 112.625 12.2488C113.085 11.8459 113.622 11.5393 114.202 11.3468C114.974 11.0913 115.783 10.9712 116.595 10.9918C117.778 10.9809 118.942 11.2869 119.967 11.878C121.006 12.4945 121.853 13.39 122.41 14.4629C123.047 15.6997 123.363 17.0769 123.33 18.4679V18.9123C123.372 20.3146 123.051 21.7041 122.399 22.9462C121.84 23.998 121.002 24.8757 119.978 25.4833C118.953 26.0909 117.781 26.4049 116.59 26.391H116.585ZM115.704 23.7298C116.306 23.7499 116.906 23.6477 117.467 23.4294C118.028 23.2111 118.54 22.8812 118.97 22.4597C119.827 21.6129 120.256 20.4007 120.256 18.8229V18.5599C120.256 17.0032 119.832 15.8014 118.986 14.9547C118.097 14.1379 116.934 13.6846 115.726 13.6846C114.519 13.6846 113.356 14.1379 112.467 14.9547C111.613 15.8014 111.185 17.0032 111.184 18.5599V18.8229C111.184 20.4007 111.611 21.6129 112.467 22.4597C112.893 22.8792 113.399 23.2081 113.955 23.4264C114.512 23.6447 115.107 23.7479 115.704 23.7298Z" fill="#06382E"/>
<path d="M127.906 9.42451C127.631 9.43149 127.358 9.38422 127.102 9.2854C126.845 9.18657 126.611 9.03815 126.412 8.84862C126.212 8.65626 126.055 8.42378 125.95 8.16639C125.846 7.90899 125.797 7.63249 125.807 7.35498C125.798 7.07788 125.846 6.80183 125.951 6.54489C126.055 6.28796 126.212 6.05592 126.412 5.86397C126.824 5.49345 127.358 5.28845 127.912 5.28845C128.466 5.28845 129.001 5.49345 129.413 5.86397C129.61 6.05867 129.765 6.29262 129.867 6.55078C129.969 6.80893 130.016 7.08556 130.004 7.36287C130.015 7.63928 129.968 7.91486 129.866 8.17203C129.764 8.4292 129.61 8.66231 129.413 8.85651C129.212 9.04694 128.976 9.19531 128.717 9.29286C128.458 9.39041 128.182 9.43517 127.906 9.42451ZM126.37 25.9755V11.4046H129.413V25.9755H126.37Z" fill="#06382E"/>
<path d="M133.197 25.9755V11.4046H136.181V13.5925H136.655C136.997 12.9236 137.506 12.3541 138.133 11.9384C138.843 11.4265 139.894 11.1697 141.288 11.168C142.317 11.1492 143.333 11.4043 144.231 11.9069C145.086 12.4001 145.788 13.1223 146.255 13.9922C146.773 14.9901 147.028 16.1031 146.997 17.2267V25.9755H143.955V17.4633C143.955 16.2029 143.639 15.272 143.008 14.6706C142.377 14.0693 141.51 13.7687 140.407 13.7687C139.843 13.7449 139.28 13.8435 138.757 14.0577C138.234 14.272 137.763 14.5968 137.378 15.0099C136.62 15.8373 136.241 17.04 136.239 18.6177V25.9808L133.197 25.9755Z" fill="#06382E"/>
</g>
<defs>
<clipPath id="clip0_102_6">
<rect width="147" height="34.3958" fill="white"/>
</clipPath>
</defs>
</svg>
