<svg width="147" height="35" viewBox="0 0 147 35" fill="none" xmlns="http://www.w3.org/2000/svg">
<path d="M6.56152 11.881L27.4883 0.639232C27.8593 0.440054 28.2756 0.340491 28.6966 0.350266C29.1176 0.36004 29.5288 0.478818 29.8902 0.695002C30.2515 0.911185 30.5507 1.21738 30.7584 1.5837C30.966 1.95002 31.0752 2.36393 31.0751 2.78503V5.52775C31.0754 5.61469 31.0451 5.69897 30.9895 5.76584C30.9339 5.83272 30.8567 5.87794 30.7711 5.8936C30.6856 5.90927 30.5973 5.89438 30.5216 5.85154C30.446 5.8087 30.3878 5.74063 30.3572 5.65923C29.7524 4.08144 28.7636 2.37743 27.4067 2.79817C24.9848 3.54762 26.2392 7.28435 23.9041 9.3013C19.9412 12.7067 12.3967 8.79903 6.56152 11.881Z" fill="#DD9940"/>
<path d="M31.073 8.35718L31.023 32.6025C31.0222 32.9726 30.9256 33.336 30.7425 33.6576C30.5593 33.9791 30.296 34.2476 29.9781 34.437C29.6603 34.6264 29.2987 34.7302 28.9288 34.7382C28.5589 34.7462 28.1932 34.6582 27.8674 34.4827L24.7539 32.8024C24.689 32.7669 24.6386 32.7096 24.6116 32.6407C24.5846 32.5718 24.5827 32.4956 24.6062 32.4254C24.6297 32.3552 24.6771 32.2955 24.7402 32.2567C24.8032 32.218 24.8779 32.2026 24.9511 32.2133C26.6841 32.4763 28.8772 32.4921 29.1586 31.0169C29.6451 28.5318 25.7637 27.8613 25.0984 24.8451C23.9808 19.7357 31.0151 14.9602 31.073 8.35718Z" fill="#DD9940"/>
<path d="M21.6537 31.114L1.33443 19.5015C0.937669 19.2742 0.606604 18.9479 0.373541 18.5544C0.140478 18.161 0.0133751 17.7139 0.00463388 17.2567C-0.00410737 16.7995 0.105811 16.3479 0.323665 15.9458C0.54152 15.5438 0.85987 15.2051 1.24766 14.9627L2.999 13.8688C3.08396 13.8161 3.18449 13.7944 3.2836 13.8073C3.38271 13.8203 3.47433 13.867 3.54297 13.9396C3.6116 14.0123 3.65305 14.1064 3.66031 14.2061C3.66756 14.3058 3.64018 14.4049 3.58278 14.4868C2.644 15.8016 1.89455 17.3794 2.90434 18.255C4.82135 19.9065 7.3274 16.8666 10.2674 17.7791C15.2716 19.3279 15.9448 27.8033 21.6537 31.114Z" fill="#DD9940"/>
<path d="M42.2883 26.3229L48.1998 5.6355H53.8141L59.6966 26.3229H56.4148L55.0553 21.4476H46.9586L45.5991 26.3229H42.2883ZM47.7554 18.4918H54.2585L51.2423 7.61562H50.7716L47.7554 18.4918Z" fill="white"/>
<path d="M61.8528 26.3229V5.6355H64.8979V26.3229H61.8528Z" fill="white"/>
<path d="M74.1594 26.323C73.7734 26.3424 73.3876 26.2824 73.0257 26.1467C72.6639 26.011 72.3337 25.8025 72.0557 25.5341C71.7876 25.251 71.5795 24.9165 71.4439 24.551C71.3084 24.1854 71.2481 23.7962 71.2668 23.4067V14.3239H67.2329V11.7521H71.251V6.93457H74.2961V11.7521H78.6298V14.3239H74.2961V22.865C74.2961 23.4575 74.5723 23.7529 75.1245 23.7512H78.167V26.323H74.1594Z" fill="white"/>
<path d="M87.6259 26.7384C86.2766 26.77 84.9424 26.4492 83.7551 25.8075C82.6592 25.1959 81.7613 24.2834 81.1675 23.1779C80.5273 21.9634 80.2069 20.6059 80.2366 19.2334V18.8758C80.2046 17.4948 80.5192 16.1278 81.1517 14.8997C81.7352 13.7963 82.6233 12.8836 83.7104 12.2701C84.8725 11.6319 86.1821 11.3108 87.5076 11.3392C88.7964 11.3103 90.0689 11.632 91.1891 12.2701C92.2372 12.8845 93.0925 13.7799 93.6583 14.855C94.2714 16.0523 94.576 17.3837 94.5445 18.7285V19.8803H83.3422C83.3808 21.1618 83.8094 22.1812 84.6281 22.9386C85.4595 23.7033 86.5573 24.1121 87.6864 24.0772C88.8294 24.0772 89.6919 23.8213 90.274 23.3094C90.8395 22.8167 91.297 22.2123 91.6177 21.5343L94.1317 22.8492C93.8041 23.4768 93.4015 24.0623 92.9325 24.5926C92.3585 25.2362 91.6586 25.7553 90.8762 26.1178C90.0294 26.5298 88.946 26.7367 87.6259 26.7384ZM83.3633 17.5452H91.4336C91.4211 17.0567 91.3098 16.5759 91.1065 16.1316C90.9031 15.6873 90.6119 15.2889 90.2503 14.9602C89.5438 14.3344 88.6199 14.0214 87.4787 14.0214C86.4612 13.9773 85.4634 14.3117 84.6781 14.9602C83.9339 15.6286 83.4652 16.5501 83.3633 17.5452Z" fill="white"/>
<path d="M97.469 26.3231V11.7522H100.456V13.4668H100.93C101.132 12.8957 101.536 12.418 102.066 12.123C102.664 11.8193 103.33 11.6718 104.001 11.6944H105.747V14.4424H103.875C102.994 14.4064 102.131 14.6956 101.45 15.2549C100.819 15.7966 100.504 16.6294 100.504 17.7531V26.3231H97.469Z" fill="white"/>
<path d="M116.589 26.7384C115.17 26.7384 114.082 26.4816 113.323 25.9679C112.636 25.5299 112.055 24.9442 111.624 24.2534H111.15V26.3229H108.166V5.6355H111.211V13.7322H111.684C111.943 13.3102 112.261 12.9276 112.628 12.5962C113.089 12.1933 113.625 11.8867 114.206 11.6942C114.977 11.4387 115.787 11.3186 116.599 11.3392C117.782 11.3283 118.946 11.6343 119.97 12.2254C121.01 12.8419 121.856 13.7374 122.413 14.8103C123.051 16.0471 123.367 17.4243 123.334 18.8153V19.2597C123.376 20.662 123.055 22.0515 122.403 23.2936C121.844 24.3454 121.006 25.2231 119.981 25.8307C118.957 26.4383 117.785 26.7523 116.594 26.7384H116.589ZM115.708 24.0772C116.31 24.0973 116.909 23.9951 117.471 23.7768C118.032 23.5585 118.543 23.2286 118.974 22.8071C119.831 21.9604 120.26 20.7481 120.26 19.1703V18.9073C120.26 17.3506 119.836 16.1488 118.989 15.3021C118.1 14.4853 116.937 14.032 115.73 14.032C114.523 14.032 113.359 14.4853 112.471 15.3021C111.617 16.1488 111.189 17.3506 111.187 18.9073V19.1703C111.187 20.7481 111.615 21.9604 112.471 22.8071C112.896 23.2267 113.403 23.5555 113.959 23.7738C114.515 23.9921 115.11 24.0954 115.708 24.0772Z" fill="white"/>
<path d="M127.91 9.77205C127.635 9.77903 127.362 9.73175 127.106 9.63293C126.849 9.53411 126.615 9.38568 126.416 9.19615C126.216 9.0038 126.058 8.77132 125.954 8.51392C125.85 8.25653 125.801 7.98003 125.811 7.70251C125.802 7.42541 125.85 7.14937 125.955 6.89243C126.059 6.63549 126.216 6.40345 126.416 6.2115C126.828 5.84099 127.362 5.63599 127.916 5.63599C128.47 5.63599 129.005 5.84099 129.417 6.2115C129.614 6.4062 129.769 6.64016 129.871 6.89831C129.973 7.15647 130.02 7.4331 130.008 7.7104C130.019 7.98681 129.972 8.26239 129.87 8.51956C129.768 8.77673 129.614 9.00985 129.417 9.20404C129.216 9.39448 128.979 9.54284 128.721 9.6404C128.462 9.73795 128.186 9.78271 127.91 9.77205ZM126.374 26.3231V11.7522H129.417V26.3231H126.374Z" fill="white"/>
<path d="M133.2 26.3229V11.752H136.185V13.9399H136.658C137.001 13.271 137.51 12.7015 138.136 12.2859C138.846 11.7739 139.898 11.5171 141.292 11.5154C142.321 11.4967 143.336 11.7517 144.234 12.2543C145.09 12.7475 145.791 13.4697 146.259 14.3396C146.776 15.3375 147.032 16.4505 147.001 17.5741V26.3229H143.958V17.8107C143.958 16.5503 143.643 15.6194 143.012 15.0181C142.381 14.4167 141.514 14.1161 140.411 14.1161C139.846 14.0923 139.283 14.1909 138.76 14.4051C138.238 14.6194 137.767 14.9442 137.382 15.3573C136.624 16.1847 136.245 17.3874 136.243 18.9652V26.3282L133.2 26.3229Z" fill="white"/>
</svg>
